# File created by Blade
# Date/Time:  Thu Mar 15 16:00:31 2018
#---------------------------------------------------------
:version 1.10
:name HOM
:units
  mass 1.0
  length 1.000000
  angle deg
:documentation
     Acclaim Skeleton File
:root
   axis xyz
   order TX TY TZ RX RZ RY
   position 0.000000 0.000000 0.000000
   orientation 0 0 0
:bonedata
   begin
      id 1
      name Spine_dum
      direction 0.000000 0.554700 0.832050
      length 3.185137
      axis 0.0 0.0 0.0 xyz
   end
   begin
      id 2
      name RightUpLeg_dum
      direction -0.959879 0.000000 -0.280414
      length 3.741437
      axis 0.0 0.0 0.0 xyz
   end
   begin
      id 3
      name LeftUpLeg_dum
      direction 0.959879 0.000000 -0.280414
      length 3.741437
      axis 0.0 0.0 0.0 xyz
   end
   begin
      id 4
      name Spine
      direction 0.000000 0.173648 0.984808
      length 3.533592
      axis -10.0 0.0 0.0 xyz
      dof rx rz ry
   end
   begin
      id 5
      name Spine1
      direction 0.000000 0.087156 0.996195
      length 3.533592
      axis -5.0 0.0 0.0 xyz
      dof rx rz ry
   end
   begin
      id 6
      name Spine2
      direction 0.000000 0.000000 1.000000
      length 3.533592
      axis 0.0 0.0 0.0 xyz
      dof rx rz ry
   end
   begin
      id 7
      name Spine3
      direction 0.000000 -0.141421 0.989949
      length 0.000000
      axis 0.0 0.0 0.0 xyz
      dof rx rz ry
   end
   begin
      id 8
      name Spine3_dum1
      direction 0.000000 -0.141421 0.989949
      length 9.369850
      axis 0.0 0.0 0.0 xyz
   end
   begin
      id 9
      name Spine3_dum2
      direction -0.174242 -0.290403 0.940907
      length 6.947577
      axis 0.0 0.0 0.0 xyz
   end
   begin
      id 10
      name Spine3_dum3
      direction 0.174242 -0.290403 0.940907
      length 6.947577
      axis 0.0 0.0 0.0 xyz
   end
   begin
      id 11
      name Neck
      direction 0.000000 -0.173648 0.984808
      length 4.858689
      axis 10.0 0.0 0.0 xyz
      dof rx rz ry
   end
   begin
      id 12
      name Head
      direction 0.000000 0.000000 1.000000
      length 5.720002
      axis 0.0 0.0 0.0 xyz
      dof rx rz ry
   end
   begin
      id 13
      name RightShoulder
      direction -1.000000 0.000000 0.000000
      length 6.012446
      axis -180.0 0.0 -180.0 xyz
      dof rz rx ry
   end
   begin
      id 14
      name RightArm
      direction -1.000000 0.000000 0.000000
      length 11.728112
      axis -180.0 0.0 -180.0 xyz
      dof ry rz rx
   end
   begin
      id 15
      name RightForeArm
      direction -1.000000 0.000000 0.000000
      length 4.841601
      axis -180.0 0.0 -180.0 xyz
      dof rx ry rz
   end
   begin
      id 16
      name RightForeArmRoll
      direction -1.000000 0.000000 0.000000
      length 5.003964
      axis -180.0 0.0 -180.0 xyz
      dof rx ry rz
   end
   begin
      id 17
      name RightHand
      direction -1.000000 0.000000 0.000000
      length 0.000000
      axis -180.0 0.0 -180.0 xyz
      dof rx ry rz
   end
   begin
      id 18
      name RightHand_dum1
      direction -1.000000 0.000000 0.000000
      length 2.836875
      axis -180.0 0.0 -180.0 xyz
   end
   begin
      id 19
      name RightHand_dum2
      direction -0.486664 -0.811107 -0.324443
      length 2.331690
      axis -180.0 0.0 -180.0 xyz
   end
   begin
      id 20
      name RightHandEnd
      direction -1.000000 0.000000 0.000000
      length 2.836875
      axis 90.0 0.0 -180.0 xyz
      dof rx ry rz
   end
   begin
      id 21
      name RightHandThumb1
      direction -0.965926 -0.258819 0.000000
      length 2.836875
      axis -10.0 0.0 -165.0 xyz
      dof rx ry rz
   end
   begin
      id 22
      name LeftShoulder
      direction 1.000000 0.000000 0.000000
      length 6.012446
      axis 0.0 0.0 0.0 xyz
      dof rz rx ry
   end
   begin
      id 23
      name LeftArm
      direction 1.000000 0.000000 0.000000
      length 11.728112
      axis 0.0 0.0 0.0 xyz
      dof ry rz rx
   end
   begin
      id 24
      name LeftForeArm
      direction 1.000000 0.000000 0.000000
      length 4.841601
      axis 0.0 0.0 0.0 xyz
      dof rx ry rz
   end
   begin
      id 25
      name LeftForeArmRoll
      direction 1.000000 0.000000 0.000000
      length 5.003964
      axis 0.0 0.0 0.0 xyz
      dof rx ry rz
   end
   begin
      id 26
      name LeftHand
      direction 1.000000 0.000000 0.000000
      length 0.000000
      axis 0.0 0.0 0.0 xyz
      dof rx ry rz
   end
   begin
      id 27
      name LeftHand_dum1
      direction 1.000000 0.000000 0.000000
      length 2.836875
      axis 0.0 0.0 0.0 xyz
   end
   begin
      id 28
      name LeftHand_dum2
      direction 0.486664 -0.811107 -0.324443
      length 2.331690
      axis 0.0 0.0 0.0 xyz
   end
   begin
      id 29
      name LeftHandEnd
      direction 1.000000 0.000000 0.000000
      length 2.836875
      axis 90.0 0.0 0.0 xyz
      dof rx ry rz
   end
   begin
      id 30
      name LeftHandThumb1
      direction 0.965926 -0.258819 0.000000
      length 2.836875
      axis 170.0 0.0 -15.0 xyz
      dof rx ry rz
   end
   begin
      id 31
      name RightUpLeg
      direction 0.000000 0.000000 -1.000000
      length 15.861483
      axis 0.0 90.0 0.0 xyz
      dof ry rz rx
   end
   begin
      id 32
      name RightLeg
      direction 0.000000 0.000000 -1.000000
      length 17.164458
      axis 0.0 90.0 0.0 xyz
      dof rx ry rz
   end
   begin
      id 33
      name RightFoot
      direction 0.000000 -0.939693 -0.342020
      length 7.211980
      axis -90.0 20.0 -90.0 xyz
      dof rx rz ry
   end
   begin
      id 34
      name RightToeBase
      direction 0.000000 -1.000000 0.000000
      length 2.905343
      axis -90.0 0.0 -90.0 xyz
      dof ry rz rx
   end
   begin
      id 35
      name LeftUpLeg
      direction 0.000000 0.000000 -1.000000
      length 15.861483
      axis 0.0 90.0 0.0 xyz
      dof ry rz rx
   end
   begin
      id 36
      name LeftLeg
      direction 0.000000 0.000000 -1.000000
      length 17.164458
      axis 0.0 90.0 0.0 xyz
      dof rx ry rz
   end
   begin
      id 37
      name LeftFoot
      direction 0.000000 -0.939693 -0.342020
      length 7.211980
      axis -90.0 20.0 -90.0 xyz
      dof rx rz ry
   end
   begin
      id 38
      name LeftToeBase
      direction 0.000000 -1.000000 0.000000
      length 2.905343
      axis -90.0 0.0 -90.0 xyz
      dof ry rz rx
   end
:hierarchy
   begin
      root Spine_dum RightUpLeg_dum LeftUpLeg_dum
      Spine_dum Spine
      RightUpLeg_dum RightUpLeg
      LeftUpLeg_dum LeftUpLeg
      Spine Spine1
      Spine1 Spine2
      Spine2 Spine3
      Spine3 Spine3_dum1 Spine3_dum2 Spine3_dum3
      Spine3_dum1 Neck
      Spine3_dum2 RightShoulder
      Spine3_dum3 LeftShoulder
      Neck Head
      RightShoulder RightArm
      RightArm RightForeArm
      RightForeArm RightForeArmRoll
      RightForeArmRoll RightHand
      RightHand RightHand_dum1 RightHand_dum2
      RightHand_dum1 RightHandEnd
      RightHand_dum2 RightHandThumb1
      LeftShoulder LeftArm
      LeftArm LeftForeArm
      LeftForeArm LeftForeArmRoll
      LeftForeArmRoll LeftHand
      LeftHand LeftHand_dum1 LeftHand_dum2
      LeftHand_dum1 LeftHandEnd
      LeftHand_dum2 LeftHandThumb1
      RightUpLeg RightLeg
      RightLeg RightFoot
      RightFoot RightToeBase
      LeftUpLeg LeftLeg
      LeftLeg LeftFoot
      LeftFoot LeftToeBase
   end

# File created by Blade
# Date/Time:  Thu Mar 15 15:59:21 2018
# Frame Rate: 120.000 fps
#------------------------------------------------------
:FULLY-SPECIFIED
:DEGREES
99
root -0.257603 38.229333 -0.845413 -88.860588 0.161196 0.028081
Spine -0.211308 0.074636 0.357832
Spine1 -0.585247 0.005998 0.043515
Spine2 1.418694 0.374278 0.415321
Spine3 0.114890 -0.026946 -0.438359
Neck -1.067652 -0.234417 -0.241955
Head -0.812231 -1.017354 -0.193154
RightShoulder 1.049905 -4.386363 -6.239050
RightArm -68.075203 -18.896305 -9.058782
RightForeArm 0.000000 -0.000000 -31.176422
RightForeArmRoll 4.460104 -0.000000 -0.000000
RightHand 0.000000 8.301382 -3.098603
RightHandEnd 0.000000 -0.000000 0.000000
RightHandThumb1 0.000000 -0.000000 0.000000
LeftShoulder 2.907781 5.187957 6.319987
LeftArm 67.782242 -37.995693 1.791890
LeftForeArm 0.000000 -0.000000 -19.116108
LeftForeArmRoll -4.468762 -0.000000 0.000000
LeftHand 0.000000 -20.995924 1.136263
LeftHandEnd 0.000000 -0.000000 0.000000
LeftHandThumb1 0.000000 -0.000000 0.000000
RightUpLeg 4.002925 -1.566666 9.438661
RightLeg -0.000000 -0.000000 14.508195
RightFoot 3.979482 -14.812685 -1.891795
RightToeBase -0.000000 0.919487 -0.000000
LeftUpLeg -5.154078 0.262233 0.836555
LeftLeg -0.000000 -0.000000 11.122553
LeftFoot -8.099879 -12.563960 -0.441139
LeftToeBase -0.000000 0.838871 -0.000000
100
root -0.258459 38.230907 -0.847086 -88.858551 0.143335 0.031886
Spine -0.192670 0.077546 0.351051
Spine1 -0.546475 0.009708 0.043070
Spine2 1.341886 0.430495 0.418026
Spine3 0.096837 -0.004759 -0.453132
Neck -1.049204 -0.257415 -0.325558
Head -0.766982 -1.070202 -0.109334
RightShoulder 1.082834 -4.335285 -6.248887
RightArm -68.066025 -18.797304 -9.174460
RightForeArm 0.000000 -0.000000 -31.212656
RightForeArmRoll 4.946876 -0.000000 -0.000000
RightHand -0.000000 8.070629 -3.451997
RightHandEnd 0.000000 -0.000000 0.000000
RightHandThumb1 0.000000 -0.000000 0.000000
LeftShoulder 2.810144 5.260755 6.367862
LeftArm 67.700012 -38.159073 1.856909
LeftForeArm 0.000000 -0.000000 -19.059179
LeftForeArmRoll -5.529570 -0.000000 0.000000
LeftHand 0.000000 -21.728575 0.321334
LeftHandEnd 0.000000 -0.000000 0.000000
LeftHandThumb1 0.000000 -0.000000 0.000000
RightUpLeg 3.974667 -1.562274 9.422827
RightLeg -0.000000 -0.000000 14.497927
RightFoot 3.976473 -14.796775 -1.864725
RightToeBase -0.000000 0.895858 -0.000000
LeftUpLeg -5.175117 0.262020 0.856714
LeftLeg -0.000000 -0.000000 11.115192
LeftFoot -8.125484 -12.553417 -0.444854
LeftToeBase -0.000000 0.808160 -0.000000
101
root -0.257438 38.230333 -0.847434 -88.873085 0.146340 0.021372
Spine -0.204069 0.075532 0.350385
Spine1 -0.572461 0.007477 0.042298
Spine2 1.400896 0.388391 0.416292
Spine3 0.108935 -0.015891 -0.448384
Neck -1.053053 -0.264640 -0.282836
Head -0.789159 -1.034093 -0.163580
RightShoulder 1.072481 -4.371648 -6.207695
RightArm -68.141083 -18.530579 -8.969685
RightForeArm 0.000000 -0.000000 -31.249250
RightForeArmRoll 4.711337 -0.000000 -0.000000
RightHand 0.000000 7.508904 -3.119496
RightHandEnd 0.000000 -0.000000 0.000000
RightHandThumb1 0.000000 -0.000000 0.000000
LeftShoulder 2.866699 5.228358 6.367104
LeftArm 67.702995 -38.172291 1.873875
LeftForeArm 0.000000 -0.000000 -19.082767
LeftForeArmRoll -4.595420 -0.000000 0.000000
LeftHand -0.000000 -21.352253 0.976519
LeftHandEnd 0.000000 -0.000000 0.000000
LeftHandThumb1 0.000000 -0.000000 0.000000
RightUpLeg 3.981784 -1.548185 9.416462
RightLeg -0.000000 -0.000000 14.495882
RightFoot 3.963483 -14.800640 -1.867831
RightToeBase -0.000000 0.924931 -0.000000
LeftUpLeg -5.169981 0.278524 0.850818
LeftLeg -0.000000 -0.000000 11.113783
LeftFoot -8.129239 -12.551611 -0.443104
LeftToeBase -0.000000 0.789338 -0.000000
102
root -0.258255 38.229787 -0.847313 -88.885796 0.142509 0.017373
Spine -0.221103 0.070547 0.340369
Spine1 -0.605581 0.001317 0.025770
Spine2 1.464804 0.349966 0.440749
Spine3 0.132382 -0.055582 -0.424560
Neck -1.087498 -0.196877 -0.291721
Head -0.787853 -1.006432 -0.177664
RightShoulder 0.985826 -4.338073 -6.200540
RightArm -68.187592 -18.469217 -8.941149
RightForeArm 0.000000 -0.000000 -31.241037
RightForeArmRoll 4.583560 -0.000000 -0.000000
RightHand 0.000000 7.428782 -3.053492
RightHandEnd 0.000000 -0.000000 0.000000
RightHandThumb1 0.000000 -0.000000 0.000000
LeftShoulder 2.951529 5.178818 6.327228
LeftArm 67.729637 -38.149170 1.871938
LeftForeArm 0.000000 -0.000000 -19.114027
LeftForeArmRoll -4.624608 -0.000000 0.000000
LeftHand 0.000000 -21.279093 0.988540
LeftHandEnd 0.000000 -0.000000 0.000000
LeftHandThumb1 0.000000 -0.000000 0.000000
RightUpLeg 3.980532 -1.530007 9.436287
RightLeg -0.000000 -0.000000 14.485406
RightFoot 3.942493 -14.797961 -1.880873
RightToeBase -0.000000 0.903529 -0.000000
LeftUpLeg -5.175415 0.300778 0.844091
LeftLeg -0.000000 -0.000000 11.100202
LeftFoot -8.126619 -12.549458 -0.437872
LeftToeBase -0.000000 0.818235 -0.000000
103
root -0.257808 38.228970 -0.848613 -88.892448 0.149048 0.005805
Spine -0.221944 0.070130 0.342493
Spine1 -0.606583 0.000267 0.024057
Spine2 1.468658 0.340730 0.447434
Spine3 0.134496 -0.063671 -0.420944
Neck -1.083693 -0.184258 -0.299075
Head -0.783960 -0.999811 -0.181784
RightShoulder 0.953327 -4.327986 -6.202216
RightArm -68.188332 -18.460400 -8.959196
RightForeArm 0.000000 -0.000000 -31.241972
RightForeArmRoll 5.050210 -0.000000 -0.000000
RightHand 0.000000 7.299634 -3.374210
RightHandEnd 0.000000 -0.000000 0.000000
RightHandThumb1 0.000000 -0.000000 0.000000
LeftShoulder 2.984620 5.170635 6.323419
LeftArm 67.739929 -38.142651 1.866738
LeftForeArm 0.000000 -0.000000 -19.132059
LeftForeArmRoll -4.591036 -0.000000 0.000000
LeftHand -0.000000 -21.245035 1.010381
LeftHandEnd 0.000000 -0.000000 0.000000
LeftHandThumb1 0.000000 -0.000000 0.000000
RightUpLeg 3.992053 -1.526837 9.440968
RightLeg -0.000000 -0.000000 14.483397
RightFoot 3.931072 -14.798808 -1.895342
RightToeBase -0.000000 0.935515 -0.000000
LeftUpLeg -5.165041 0.319129 0.857568
LeftLeg -0.000000 -0.000000 11.080636
LeftFoot -8.136999 -12.536412 -0.456587
LeftToeBase -0.000000 0.799232 -0.000000
104
root -0.258671 38.228576 -0.850389 -88.888908 0.145984 -0.001687
Spine -0.226275 0.068616 0.340985
Spine1 -0.613109 0.000199 0.026567
Spine2 1.471540 0.333211 0.445951
Spine3 0.136721 -0.064603 -0.421520
Neck -1.069528 -0.191211 -0.316589
Head -0.797253 -1.002332 -0.172372
RightShoulder 0.949974 -4.328779 -6.208377
RightArm -68.179344 -18.458294 -8.958291
RightForeArm 0.000000 -0.000000 -31.239290
RightForeArmRoll 5.101558 -0.000000 -0.000000
RightHand 0.000000 7.291269 -3.399823
RightHandEnd 0.000000 -0.000000 0.000000
RightHandThumb1 0.000000 -0.000000 0.000000
LeftShoulder 3.001010 5.165614 6.328940
LeftArm 67.727814 -38.163963 1.882013
LeftForeArm 0.000000 -0.000000 -19.144619
LeftForeArmRoll -4.575919 -0.000000 0.000000
LeftHand 0.000000 -21.249493 1.010113
LeftHandEnd 0.000000 -0.000000 0.000000
LeftHandThumb1 0.000000 -0.000000 0.000000
RightUpLeg 3.987597 -1.529869 9.436453
RightLeg -0.000000 -0.000000 14.476769
RightFoot 3.941322 -14.792642 -1.894598
RightToeBase -0.000000 0.949235 -0.000000
LeftUpLeg -5.170001 0.310256 0.835785
LeftLeg -0.000000 -0.000000 11.083265
LeftFoot -8.124189 -12.537093 -0.443089
LeftToeBase -0.000000 0.813834 -0.000000
105
root -0.256838 38.227711 -0.852661 -88.888664 0.152888 -0.009740
Spine -0.228397 0.068073 0.336962
Spine1 -0.616959 -0.000531 0.020400
Spine2 1.473031 0.329983 0.457494
Spine3 0.139639 -0.067901 -0.415870
Neck -1.047256 -0.186845 -0.291993
Head -0.819518 -0.970103 -0.208853
RightShoulder 0.954809 -4.328543 -6.211817
RightArm -68.173515 -18.462898 -8.954840
RightForeArm 0.000000 -0.000000 -31.235664
RightForeArmRoll 5.052546 -0.000000 -0.000000
RightHand -0.000000 7.264195 -3.384236
RightHandEnd 0.000000 -0.000000 0.000000
RightHandThumb1 0.000000 -0.000000 0.000000
LeftShoulder 3.010267 5.168506 6.336403
LeftArm 67.717125 -38.169922 1.885094
LeftForeArm 0.000000 -0.000000 -19.162275
LeftForeArmRoll -4.519404 -0.000000 0.000000
LeftHand 0.000000 -21.247379 1.043791
LeftHandEnd 0.000000 -0.000000 0.000000
LeftHandThumb1 0.000000 -0.000000 0.000000
RightUpLeg 3.998570 -1.535989 9.437357
RightLeg -0.000000 -0.000000 14.474176
RightFoot 3.924419 -14.787746 -1.904743
RightToeBase -0.000000 0.923925 -0.000000
LeftUpLeg -5.157356 0.308746 0.835072
LeftLeg -0.000000 -0.000000 11.081293
LeftFoot -8.127343 -12.536635 -0.456734
LeftToeBase -0.000000 0.817326 -0.000000
106
root -0.255234 38.226945 -0.854848 -88.880859 0.160177 -0.018640
Spine -0.231124 0.067514 0.332171
Spine1 -0.618180 -0.001274 0.012591
Spine2 1.463403 0.355393 0.483188
Spine3 0.140383 -0.076650 -0.403839
Neck -1.086917 -0.167931 -0.332319
Head -0.756958 -1.026676 -0.199569
RightShoulder 0.903861 -4.262156 -6.221628
RightArm -68.185226 -18.367931 -9.038851
RightForeArm 0.000000 -0.000000 -31.245073
RightForeArmRoll 5.097292 -0.000000 -0.000000
RightHand 0.000000 7.217875 -3.411895
RightHandEnd 0.000000 -0.000000 0.000000
RightHandThumb1 0.000000 -0.000000 0.000000
LeftShoulder 3.001978 5.159841 6.313004
LeftArm 67.739876 -38.167072 1.873328
LeftForeArm 0.000000 -0.000000 -19.160179
LeftForeArmRoll -4.441686 -0.000000 0.000000
LeftHand 0.000000 -21.227081 1.073098
LeftHandEnd 0.000000 -0.000000 0.000000
LeftHandThumb1 0.000000 -0.000000 0.000000
RightUpLeg 4.008537 -1.553501 9.439024
RightLeg -0.000000 -0.000000 14.479004
RightFoot 3.918022 -14.786094 -1.917846
RightToeBase -0.000000 0.919212 -0.000000
LeftUpLeg -5.148217 0.293657 0.806509
LeftLeg -0.000000 -0.000000 11.084618
LeftFoot -8.114854 -12.528930 -0.441045
LeftToeBase -0.000000 0.806120 -0.000000
107
root -0.253439 38.226783 -0.857194 -88.874855 0.166884 -0.024783
Spine -0.244200 0.063220 0.330571
Spine1 -0.639092 -0.001600 0.016604
Spine2 1.490412 0.332365 0.473342
Spine3 0.148347 -0.074499 -0.404442
Neck -1.051158 -0.185106 -0.278799
Head -0.818793 -0.989393 -0.244051
RightShoulder 0.949078 -4.334812 -6.232083
RightArm -68.141312 -18.460516 -8.953481
RightForeArm 0.000000 -0.000000 -31.238251
RightForeArmRoll 5.179378 -0.000000 -0.000000
RightHand -0.000000 7.242350 -3.400206
RightHandEnd 0.000000 -0.000000 0.000000
RightHandThumb1 0.000000 -0.000000 0.000000
LeftShoulder 3.032520 5.163018 6.335231
LeftArm 67.716888 -38.185383 1.871883
LeftForeArm 0.000000 -0.000000 -19.178633
LeftForeArmRoll -4.379906 -0.000000 0.000000
LeftHand 0.000000 -21.213535 1.105292
LeftHandEnd 0.000000 -0.000000 0.000000
LeftHandThumb1 0.000000 -0.000000 0.000000
RightUpLeg 4.020011 -1.567407 9.435175
RightLeg -0.000000 -0.000000 14.481334
RightFoot 3.937305 -14.777064 -1.929032
RightToeBase -0.000000 0.877136 -0.000000
LeftUpLeg -5.135347 0.286057 0.797259
LeftLeg -0.000000 -0.000000 11.079184
LeftFoot -8.111786 -12.523867 -0.444268
LeftToeBase -0.000000 0.781757 -0.000000
108
root -0.253282 38.228017 -0.860173 -88.868210 0.169349 -0.020932
Spine -0.250388 0.062249 0.333269
Spine1 -0.649721 -0.002295 0.018682
Spine2 1.497179 0.319324 0.463820
Spine3 0.153328 -0.078075 -0.403698
Neck -1.042054 -0.179981 -0.258005
Head -0.827896 -0.985978 -0.260223
RightShoulder 0.986035 -4.397461 -6.231815
RightArm -68.127579 -18.524841 -8.870442
RightForeArm 0.000000 -0.000000 -31.218052
RightForeArmRoll 5.053815 -0.000000 -0.000000
RightHand 0.000000 7.203387 -3.313842
RightHandEnd 0.000000 -0.000000 0.000000
RightHandThumb1 0.000000 -0.000000 0.000000
LeftShoulder 3.047652 5.160706 6.358048
LeftArm 67.694595 -38.196186 1.877810
LeftForeArm 0.000000 -0.000000 -19.189304
LeftForeArmRoll -4.354125 -0.000000 0.000000
LeftHand 0.000000 -21.220154 1.115621
LeftHandEnd 0.000000 -0.000000 0.000000
LeftHandThumb1 0.000000 -0.000000 0.000000
RightUpLeg 4.021228 -1.575112 9.416911
RightLeg -0.000000 -0.000000 14.473755
RightFoot 3.939951 -14.761364 -1.910839
RightToeBase -0.000000 0.841115 -0.000000
LeftUpLeg -5.134217 0.256942 0.758222
LeftLeg -0.000000 -0.000000 11.100861
LeftFoot -8.062716 -12.526775 -0.409520
LeftToeBase -0.000000 0.794483 -0.000000
